HIERARCHY
ROOT Hips
{
 OFFSET 0.000000 0.000000 0.000000
 CHANNELS 6 Xposition Yposition Zposition Yrotation Xrotation Zrotation
 JOINT Chest
 {
  OFFSET 0.000000 9.585900 0.002600
  CHANNELS 3 Yrotation Xrotation Zrotation
  JOINT Chest2
  {
   OFFSET 0.000000 9.601200 -0.005300
   CHANNELS 3 Yrotation Xrotation Zrotation
   JOINT Chest3
   {
    OFFSET 0.000000 9.561800 0.000000
    CHANNELS 3 Yrotation Xrotation Zrotation
    JOINT Chest4
    {
     OFFSET 0.000000 9.552100 0.000000
     CHANNELS 3 Yrotation Xrotation Zrotation
     JOINT Neck
     {
      OFFSET 0.000000 14.453000 0.000000
      CHANNELS 3 Yrotation Xrotation Zrotation
      JOINT Head
      {
       OFFSET 0.000000 8.936500 -0.011300
       CHANNELS 3 Yrotation Xrotation Zrotation
       End Site
       {
        OFFSET 0.000000 17.073600 -0.006000
       }
      }
     }
     JOINT RightCollar
     {
      OFFSET -2.921100 9.558500 0.000000
      CHANNELS 3 Yrotation Xrotation Zrotation
      JOINT RightShoulder
      {
       OFFSET -13.519700 0.000000 0.000000
       CHANNELS 3 Yrotation Xrotation Zrotation
       JOINT RightElbow
       {
        OFFSET 0.000000 -29.696600 0.000000
        CHANNELS 3 Yrotation Xrotation Zrotation
        JOINT RightWrist
        {
         OFFSET 0.000000 -24.004700 0.000000
         CHANNELS 3 Yrotation Xrotation Zrotation
         End Site
         {
          OFFSET 0.000000 -17.728500 0.000000
         }
        }
       }
      }
     }
     JOINT LeftCollar
     {
      OFFSET 2.921100 9.558500 0.000000
      CHANNELS 3 Yrotation Xrotation Zrotation
      JOINT LeftShoulder
      {
       OFFSET 13.519700 0.000000 0.000000
       CHANNELS 3 Yrotation Xrotation Zrotation
       JOINT LeftElbow
       {
        OFFSET 0.000000 -29.696600 0.000000
        CHANNELS 3 Yrotation Xrotation Zrotation
        JOINT LeftWrist
        {
         OFFSET 0.000000 -24.004700 0.000000
         CHANNELS 3 Yrotation Xrotation Zrotation
         End Site
         {
          OFFSET 0.000000 -17.728500 0.000000
         }
        }
       }
      }
     }
    }
   }
  }
 }
 JOINT RightHip
 {
  OFFSET -7.771700 -0.012900 -0.001300
  CHANNELS 3 Yrotation Xrotation Zrotation
  JOINT RightKnee
  {
   OFFSET 0.000000 -40.869800 0.001200
   CHANNELS 3 Yrotation Xrotation Zrotation
   JOINT RightAnkle
   {
    OFFSET 0.000000 -39.717900 0.002100
    CHANNELS 3 Yrotation Xrotation Zrotation
    JOINT RightToe
    {
     OFFSET 0.000000 -4.965400 11.033500
     CHANNELS 3 Yrotation Xrotation Zrotation
     End Site
     {
      OFFSET 0.000000 -1.423100 5.872300
     }
    }
   }
  }
 }
 JOINT LeftHip
 {
  OFFSET 7.771700 -0.012900 -0.001300
  CHANNELS 3 Yrotation Xrotation Zrotation
  JOINT LeftKnee
  {
   OFFSET 0.000000 -40.869800 0.001200
   CHANNELS 3 Yrotation Xrotation Zrotation
   JOINT LeftAnkle
   {
    OFFSET 0.000000 -39.717900 0.002100
    CHANNELS 3 Yrotation Xrotation Zrotation
    JOINT LeftToe
    {
     OFFSET 0.000000 -4.965400 11.033500
     CHANNELS 3 Yrotation Xrotation Zrotation
     End Site
     {
      OFFSET 0.000000 -1.423100 5.872300
     }
    }
   }
  }
 }
}
MOTION
Frames: 11
Frame Time: 0.008333
0.000000 85.388000 0.000000 0.000000 -5.767877 0.000000 0.000000 11.653817 0.000000 0.000000 -5.885947 0.000000 0.000000 -0.000000 0.000000 0.000000 -0.000000 0.000000 0.000000 12.528835 0.000000 0.000000 0.711642 0.000000 0.000000 -0.000000 0.000000 0.000000 0.000000 -90.000000 0.000000 -2.309062 0.000000 0.000000 2.309062 0.000000 0.000000 -0.000000 0.000000 0.000000 -0.000000 90.000000 0.000000 -2.309062 0.000000 0.000000 2.309062 0.000000 0.000000 8.520406 0.000000 0.000000 1.905762 0.000000 -0.000000 -4.658285 0.000000 0.000000 -0.000000 0.000000 0.000000 8.520406 0.000000 0.000000 1.905762 0.000000 -0.000000 -4.658285 0.000000 0.000000 -0.000000 0.000000
-137.597007 58.240139 112.432361 177.260383 -29.849868 -1.293083 4.319802 20.331687 3.325458 0.522099 2.693879 0.356197 0.801144 4.346862 0.561862 3.574509 17.426354 2.702150 -0.601408 12.993324 -2.098474 -0.290932 -11.655374 -3.735517 4.233461 -0.027894 0.943592 31.496387 -30.893689 -30.641991 142.759966 -58.251291 -114.568620 16.056195 -19.357713 -52.995011 -8.819384 -2.951282 -3.411273 -13.328120 -15.677226 1.293973 -88.102341 -69.984623 53.134547 -10.356659 -6.090770 10.334990 5.857898 -45.032133 -3.884288 -11.655843 65.727568 -13.698979 7.886411 26.551981 6.250192 -0.436725 -18.207169 2.707876 -6.111246 -43.123073 0.137735 24.248798 64.710472 21.477087 -15.015624 8.367635 0.344339 -0.032140 -0.164174 -0.082597
-137.604538 58.239628 112.428717 177.302431 -29.860454 -1.273122 4.356592 20.431689 3.363859 0.501672 2.700288 0.351425 0.804376 4.379911 0.568096 3.576536 17.483461 2.718733 -0.283601 12.929522 -2.067949 0.301091 -11.765394 -3.807611 4.227457 -0.248556 0.810784 31.375673 -30.951122 -30.966523 143.785782 -57.185035 -115.661494 16.218282 -19.209474 -53.188608 -8.804110 -3.230801 -3.388147 -13.461673 -15.696082 1.579425 -87.347262 -69.722401 52.479014 -10.293858 -5.929277 11.150894 5.870243 -45.033698 -3.969512 -11.680191 65.759572 -13.702878 7.904697 26.570536 6.252398 -0.442432 -18.240024 2.700565 -6.071732 -43.114647 0.056817 24.223539 64.704699 21.473440 -15.036157 8.396424 0.359998 -0.024208 -0.153150 -0.080219
-137.612890 58.237976 112.427135 177.325133 -29.859486 -1.246418 4.373569 20.546601 3.396351 0.486048 2.708208 0.344449 0.802729 4.420366 0.574767 3.556170 17.555747 2.732781 0.027449 12.844402 -2.050388 0.886853 -11.913793 -3.902782 4.247306 -0.494994 0.676509 31.138957 -31.033055 -31.205585 145.009758 -56.208417 -116.946657 16.201602 -18.970108 -53.146046 -8.739546 -3.509501 -3.374117 -13.418486 -15.707119 1.783730 -86.868336 -69.379573 52.104718 -10.394939 -5.959865 12.051883 5.838199 -45.048690 -4.025479 -11.623656 65.786722 -13.663649 7.947365 26.587241 6.266028 -0.458418 -18.267435 2.688486 -5.997389 -43.120336 -0.035780 24.193944 64.695687 21.473873 -15.039811 8.435335 0.382902 -0.008101 -0.113544 -0.061364
-137.623081 58.236323 112.426079 177.382420 -29.857541 -1.234236 4.326229 20.671878 3.397811 0.483912 2.740507 0.348177 0.799008 4.470476 0.580678 3.523669 17.646273 2.740017 0.323368 12.737227 -2.042106 1.449058 -12.102425 -4.011012 4.277857 -0.785725 0.565882 30.818412 -31.140573 -31.375860 146.304853 -55.312339 -118.316425 16.110272 -18.695927 -53.111448 -8.645713 -3.792223 -3.347787 -13.243815 -15.719424 1.910615 -86.771784 -68.933665 52.104600 -10.613517 -6.187257 13.043290 5.773648 -45.049048 -4.055605 -11.626434 65.790367 -13.701881 7.973407 26.596164 6.274992 -0.459730 -18.283264 2.684436 -5.984740 -43.131084 -0.108318 24.225566 64.674795 21.492616 -15.036174 8.516753 0.430043 -0.026593 -0.146321 -0.071592
-137.631158 58.235217 112.425403 177.431799 -29.858441 -1.238529 4.281722 20.820628 3.404556 0.481772 2.777764 0.350730 0.795173 4.528134 0.584586 3.487501 17.750475 2.737014 0.599851 12.614560 -2.039549 1.978010 -12.319345 -4.123720 4.332125 -1.121895 0.445320 30.400327 -31.284475 -31.431912 147.599441 -54.485639 -119.706043 16.007324 -18.395942 -53.200367 -8.538638 -4.066770 -3.296568 -12.969937 -15.732903 1.967474 -87.016781 -68.380005 52.432953 -10.893999 -6.556843 14.094816 5.678325 -45.042622 -4.036334 -11.633092 65.781381 -13.759028 7.988280 26.602205 6.280840 -0.461284 -18.290807 2.683883 -5.992154 -43.136471 -0.149236 24.235611 64.670250 21.504932 -15.037156 8.549050 0.445691 -0.030826 -0.162460 -0.075357
-137.637087 58.234768 112.425191 177.452161 -29.861450 -1.247272 4.260315 20.974862 3.413452 0.479918 2.815492 0.351729 0.791678 4.586527 0.585882 3.451911 17.855726 2.723776 0.855016 12.491717 -2.041300 2.469176 -12.536267 -4.236859 4.337457 -1.397673 0.377530 30.043002 -31.479213 -31.481167 148.796262 -53.702246 -121.042033 15.903512 -18.098895 -53.425345 -8.433403 -4.299833 -3.224343 -12.609569 -15.741323 1.967062 -87.483258 -67.740876 52.978106 -11.178297 -6.992539 15.123711 5.582607 -45.031859 -3.979444 -11.626499 65.764718 -13.809778 7.991052 26.599951 6.282109 -0.460406 -18.286233 2.685921 -6.002997 -43.135275 -0.155688 24.251348 64.666088 21.514483 -15.038785 8.569890 0.460197 -0.024507 -0.145653 -0.068184
-137.644335 58.234042 112.426799 177.478452 -29.853953 -1.254969 4.223004 21.102759 3.400725 0.478259 2.848045 0.351136 0.788567 4.636948 0.584673 3.420076 17.946583 2.703225 1.087880 12.386197 -2.045902 2.919201 -12.720949 -4.346452 4.349279 -1.636841 0.363844 29.700174 -31.642512 -31.498554 149.834281 -52.952457 -122.302497 15.778125 -17.839685 -53.717638 -8.345895 -4.448843 -3.145422 -12.158306 -15.740447 1.925906 -88.059957 -67.047651 53.629246 -11.414382 -7.440450 16.049249 5.507254 -45.030705 -3.942756 -11.605835 65.751880 -13.833286 7.967041 26.590275 6.281744 -0.454721 -18.272851 2.684035 -6.006087 -43.148238 -0.167701 24.268204 64.659533 21.516760 -15.045597 8.596634 0.485855 -0.025089 -0.128926 -0.060687
-137.655070 58.232556 112.430778 177.500460 -29.829984 -1.241108 4.184580 21.141566 3.365150 0.459632 2.911530 0.341762 0.784928 4.672480 0.581644 3.391297 18.011503 2.679644 1.299458 12.309894 -2.052460 3.328571 -12.851688 -4.450194 4.348872 -1.775098 0.386839 29.409280 -31.787751 -31.494316 150.708157 -52.228407 -123.500612 15.638011 -17.621904 -54.002652 -8.275977 -4.483436 -3.074488 -11.618276 -15.727219 1.855184 -88.657478 -66.319445 54.287958 -11.598217 -7.895319 16.849022 5.495816 -45.049037 -3.965384 -11.648755 65.743478 -13.897754 7.980018 26.573837 6.294103 -0.452031 -18.256974 2.681963 -5.997104 -43.177911 -0.192049 24.305252 64.644898 21.508420 -15.058270 8.646050 0.540845 -0.031524 -0.101331 -0.054515
-137.658162 58.232198 112.434481 177.512124 -29.810634 -1.266279 4.170279 21.171843 3.373834 0.455078 2.910607 0.339344 0.758573 4.716811 0.568459 3.365446 18.047731 2.657828 1.439778 12.239182 -2.051379 3.747677 -12.898271 -4.565070 4.334531 -1.804302 0.436052 29.160635 -31.913107 -31.464534 151.405506 -51.500920 -124.615505 15.505903 -17.435784 -54.243589 -8.219482 -4.405699 -3.021096 -11.014674 -15.691849 1.762561 -89.217060 -65.559651 54.887634 -11.769234 -8.368167 17.573162 5.414896 -45.056766 -3.884645 -11.664292 65.718052 -13.974124 7.992529 26.550857 6.319279 -0.454151 -18.232053 2.681211 -6.022103 -43.207144 -0.130689 24.272237 64.663446 21.439009 -15.067602 8.682118 0.566854 -0.029658 -0.103163 -0.042740
-137.661425 58.233320 112.436312 177.510396 -29.803055 -1.280443 4.139597 21.227117 3.357396 0.473462 2.885430 0.347152 0.731579 4.719525 0.553801 3.344364 18.061084 2.640462 1.570320 12.228483 -2.048797 4.104308 -12.926809 -4.670829 4.302454 -1.744711 0.505483 28.926242 -32.025962 -31.404341 151.916110 -50.736557 -125.613063 15.370009 -17.267674 -54.414731 -8.180805 -4.243969 -2.985463 -10.380338 -15.627964 1.650512 -89.744864 -64.750928 55.432114 -11.959440 -8.845930 18.293050 5.369880 -45.053229 -3.824144 -11.663824 65.698494 -14.008252 7.969584 26.524474 6.309973 -0.449627 -18.200936 2.693663 -6.030471 -43.216259 -0.088106 24.252275 64.671629 21.386725 -15.079090 8.712087 0.593756 -0.024732 -0.109088 -0.037247
